<?xml version="1.0" encoding="UTF-8"?> <svg xmlns="http://www.w3.org/2000/svg" width="96" height="30" viewBox="0 0 96 30" fill="none"><rect width="96" height="30" rx="15" fill="white"></rect><path d="M17.1818 19.2727L11 15.6364L17.1818 12V19.2727Z" fill="#000BFF"></path><path d="M78.3633 19.2727V12L84.5451 15.6364L78.3633 19.2727Z" fill="#000BFF"></path><path d="M22.2305 16.9082C22.3325 18.2456 23.4658 19.1157 25.1094 19.1157C26.8818 19.1157 28.0044 18.208 28.0044 16.7847C28.0044 15.646 27.3599 15.0229 25.7539 14.6201L24.9429 14.4053C23.874 14.1313 23.4497 13.7822 23.4497 13.1753C23.4497 12.3911 24.1318 11.8755 25.1631 11.8755C26.1299 11.8755 26.7852 12.3481 26.9194 13.1431H27.8916C27.811 11.8916 26.6938 11 25.1953 11C23.5571 11 22.4561 11.8916 22.4561 13.2075C22.4561 14.3086 23.063 14.9424 24.4648 15.2969L25.4585 15.5547C26.5273 15.8232 27.0107 16.2422 27.0107 16.9028C27.0107 17.6709 26.2427 18.2349 25.2007 18.2349C24.0996 18.2349 23.3262 17.7192 23.208 16.9082H22.2305Z" fill="#000BFF"></path><path d="M32.9267 18.9331V12.0527H35.4242V11.1826H29.4623V12.0527H31.9599V18.9331H32.9267Z" fill="#000BFF"></path><path d="M38.2142 12.042H40.078C41.077 12.042 41.6786 12.5952 41.6786 13.5244C41.6786 14.4751 41.1146 15.0068 40.1209 15.0068H38.2142V12.042ZM38.2142 15.8662H40.1209L41.7806 18.9331H42.9139L41.12 15.7158C42.0921 15.4097 42.6776 14.5718 42.6776 13.4922C42.6776 12.0957 41.7 11.1826 40.2069 11.1826H37.2474V18.9331H38.2142V15.8662Z" fill="#000BFF"></path><path d="M49.5657 18.063H45.7307V15.3989H49.367V14.5396H45.7307V12.0527H49.5657V11.1826H44.7639V18.9331H49.5657V18.063Z" fill="#000BFF"></path><path d="M54.6276 18.9331V12.0527H57.1252V11.1826H51.1633V12.0527H53.6608V18.9331H54.6276Z" fill="#000BFF"></path><path d="M61.7467 19.1157C63.3956 19.1157 64.6202 18.1973 64.878 16.7739H63.8951C63.648 17.6709 62.8263 18.2241 61.7467 18.2241C60.2535 18.2241 59.3189 17.0049 59.3189 15.0605C59.3189 13.1162 60.2535 11.8916 61.7413 11.8916C62.8102 11.8916 63.6373 12.52 63.8951 13.519H64.878C64.6471 12.0259 63.3741 11 61.7413 11C59.6358 11 58.3253 12.5576 58.3253 15.0605C58.3253 17.5581 59.6412 19.1157 61.7467 19.1157Z" fill="#000BFF"></path><path d="M73.0176 18.9331V11.1826H72.0508V14.5342H67.7969V11.1826H66.8301V18.9331H67.7969V15.4043H72.0508V18.9331H73.0176Z" fill="#000BFF"></path></svg> 